<svg width="24" height="24" fill="none" xmlns="http://www.w3.org/2000/svg" class="" viewBox="0 0 24 24"><path fill-rule="evenodd" clip-rule="evenodd" d="M4.29 6.29a2 2 0 012-2h10.693a2 2 0 012 2v5.404a5.55 5.55 0 00-2.472-.55V8.274a.6.6 0 00-.6-.6h-.771l.321-.478a.6.6 0 10-.996-.67l-.771 1.148h-.317l-.772-1.148a.6.6 0 00-.996.67l.322.478h-.775a.6.6 0 00-.6.6v3.772a.6.6 0 00.6.6h1.609a5.602 5.602 0 00-.625.69h-1.463a.6.6 0 100 1.2h.763a5.554 5.554 0 00-.443 2.181c0 .76.152 1.484.428 2.144H6.289a2 2 0 01-2-2V6.29zm11.021 4.997a5.525 5.525 0 00-.552.158h-.626v-.684h1.178v.526zM6.277 7.332a.6.6 0 01.6-.6h2.378a.6.6 0 01.6.6v2.83a.6.6 0 01-.6.6H7.477v1.157h1.778a.6.6 0 01.6.6v3.3a.6.6 0 01-.6.6H6.877a.6.6 0 010-1.2h1.778v-2.1H6.877a.6.6 0 01-.6-.6V10.16a.6.6 0 01.6-.6h1.778V7.932H6.877a.6.6 0 01-.6-.6zm5.48 4.113v-.684h1.177v.684h-1.178zm0-1.884h1.177v-.688h-1.178v.688zm2.377 0h1.177v-.688h-1.178v.688z" fill="#fff"></path><path d="M20.425 16.713a3.857 3.857 0 11-7.714 0 3.857 3.857 0 017.714 0z" fill="#fff"></path><path d="M15.258 16.802l1.028 1.079L18 15.859" stroke="#FE2C55" stroke-width="1.5" stroke-linecap="round" stroke-linejoin="round"></path></svg>