<svg width="24" height="24" fill="none" xmlns="http://www.w3.org/2000/svg" class="vpn447p8" viewBox="0 0 24 24"><path fill-rule="evenodd" clip-rule="evenodd" d="M3.867 6.29a2 2 0 012-2H16.44a2 2 0 012 2v5.25l-1.644-.959a1 1 0 00-.801-.09V8.272a.6.6 0 00-.6-.6h-.76l.32-.48a.6.6 0 00-.999-.666l-.764 1.146h-.305l-.764-1.146a.6.6 0 00-.998.666l.32.48h-.765a.6.6 0 00-.6.6v3.772a.6.6 0 00.6.6h1.57l-.605.353a1 1 0 00-.346.337h-1.091a.6.6 0 100 1.2h.94v4.178c0 .05.005.1.012.147H5.867a2 2 0 01-2-2V6.29zm10.927 4.87l-.488.285h-.67v-.684h1.158v.4zM5.836 7.333a.6.6 0 01.6-.6h2.358a.6.6 0 01.6.6v2.83a.6.6 0 01-.6.6H7.036v1.157h1.758a.6.6 0 01.6.6v3.3a.6.6 0 01-.6.6H6.436a.6.6 0 010-1.2h1.758v-2.1H6.436a.6.6 0 01-.6-.6V10.16a.6.6 0 01.6-.6h1.758V7.932H6.436a.6.6 0 01-.6-.6zm5.443 4.113v-.684h1.157v.684h-1.157zm0-1.884h1.157v-.688h-1.157v.688zm2.357 0h1.158v-.688h-1.158v.688z" fill="#fff"></path><path fill-rule="evenodd" clip-rule="evenodd" d="M16.778 12.703a1 1 0 00-.98 0l-2.429 1.366a1 1 0 00-.51.871v2.688a1 1 0 00.51.871l2.429 1.366a1 1 0 00.98 0l2.429-1.366a1 1 0 00.51-.871V14.94a1 1 0 00-.51-.871l-2.429-1.366zm-.49 2.299a1.286 1.286 0 100 2.571 1.286 1.286 0 000-2.571z" fill="#fff"></path></svg>