<svg viewBox="0 0 24 24" fill="none" xmlns="http://www.w3.org/2000/svg" width="1em" height="1em" focusable="false" class="Ykki_0Um"><path d="M10 10C10 11.1046 9.32843 12 8.5 12C7.67157 12 7 11.1046 7 10C7 8.89543 7.67157 8 8.5 8C9.32843 8 10 8.89543 10 10Z" fill="currentColor"></path><path d="M15.5 12C16.3284 12 17 11.1046 17 10C17 8.89543 16.3284 8 15.5 8C14.6716 8 14 8.89543 14 10C14 11.1046 14.6716 12 15.5 12Z" fill="currentColor"></path><path d="M12 16.5303C10.3432 16.5303 9.00004 15.5709 9.00004 14.3874C9.00004 13.2039 15 13.2039 15 14.3874C15 15.5709 13.6569 16.5303 12 16.5303Z" fill="currentColor"></path><path fill-rule="evenodd" clip-rule="evenodd" d="M12 2C6.47715 2 2 6.47715 2 12C2 17.5228 6.47715 22 12 22C17.5228 22 22 17.5228 22 12C22 6.47715 17.5228 2 12 2ZM4 12C4 7.58172 7.58172 4 12 4C16.4183 4 20 7.58172 20 12C20 16.4183 16.4183 20 12 20C7.58172 20 4 16.4183 4 12Z" fill="currentColor"></path></svg>