<svg width="32" height="32" fill="none" xmlns="http://www.w3.org/2000/svg" class="" viewBox="0 0 32 32"><path fill-rule="evenodd" clip-rule="evenodd" d="M8.97 8.73C7.882 8.73 7 9.72 7 10.94v10.58c0 1.22.882 2.21 1.97 2.21h8.254A5.5 5.5 0 0123 15.59v-4.65c0-1.22-.882-2.21-1.97-2.21H8.97zm4.723 10.464l3.822-2.451a1.025 1.025 0 000-1.743l-3.822-2.451c-.724-.464-1.693.035-1.693.871v4.902c0 .837.97 1.336 1.693.872z" fill="#fff" fill-opacity="0.9"></path><path fill-rule="evenodd" clip-rule="evenodd" d="M22 25a4 4 0 100-8 4 4 0 000 8zm.4-6a.9.9 0 10-1.8 0v2.5a.9.9 0 00.9.9H24a.9.9 0 100-1.8h-1.6V19z" fill="#fff" fill-opacity="0.9"></path></svg>